<?xml version="1.0" encoding="UTF-8"?>
<svg width="200px" height="180px" viewBox="0 0 200 180" version="1.1" xmlns="http://www.w3.org/2000/svg" xmlns:xlink="http://www.w3.org/1999/xlink">
    <!-- Generator: Sketch 61 (89581) - https://sketch.com -->
    <title>sprite</title>
    <desc>Created with Sketch.</desc>
    <g id="sprite" stroke="none" stroke-width="1" fill="none" fill-rule="evenodd">
        <g id="icon/currency/blue" stroke="#34558B" stroke-width="2">
            <rect id="Rectangle" x="1" y="8" width="34" height="15" rx="1"></rect>
            <rect id="Rectangle" transform="translate(18.000000, 25.500000) scale(1, -1) translate(-18.000000, -25.500000) " x="1" y="23" width="34" height="5"></rect>
            <path d="M5.99999999,7.99971096 L0.999951829,7.99995183 L0.999710956,13 C0.999807303,13 0.999903651,13 1,13 C3.76142375,13 6,10.7614237 6,8 C6,7.99990365 6,7.9998073 5.99999999,7.99971096 Z" id="Combined-Shape"></path>
            <path d="M5.49999999,18.4996949 L1.50006026,18.499939 L1.50036159,23.5 C3.66490597,23.4997547 5.5,21.2974861 5.5,18.5 C5.5,18.4998983 5.5,18.4997966 5.49999999,18.4996949 Z" id="Combined-Shape" transform="translate(3.500000, 21.000000) rotate(-90.000000) translate(-3.500000, -21.000000) "></path>
            <path d="M35,17.9996949 L31.0000603,17.999939 L31.0003616,23 C33.164906,22.9997547 35,20.7974861 35,18 C35,17.9998983 35,17.9997966 35,17.9996949 Z" id="Combined-Shape" transform="translate(33.000000, 20.500000) rotate(-180.000000) translate(-33.000000, -20.500000) "></path>
            <path d="M35.5,8.50036159 L30.499939,8.50006026 L30.4996949,12.5 C30.4997966,12.5 30.4998983,12.5 30.5,12.5 C33.2974861,12.5 35.4997547,10.664906 35.5,8.50036159 Z" id="Combined-Shape" transform="translate(33.000000, 10.500000) rotate(-270.000000) translate(-33.000000, -10.500000) "></path>
            <circle id="Oval" cx="18.5" cy="15.5" r="4.5"></circle>
            <line x1="25" y1="5" x2="26" y2="3" id="Line" stroke-linecap="round" stroke-linejoin="round"></line>
            <line x1="12" y1="33" x2="13" y2="31" id="Line" stroke-linecap="round" stroke-linejoin="round"></line>
            <line x1="13" y1="5" x2="12" y2="3" id="Line" stroke-linecap="round" stroke-linejoin="round"></line>
            <line x1="26" y1="33" x2="25" y2="31" id="Line" stroke-linecap="round" stroke-linejoin="round"></line>
            <line x1="19" y1="4" x2="19" y2="1" id="Line" stroke-linecap="round" stroke-linejoin="round"></line>
            <line x1="19" y1="35" x2="19" y2="32" id="Line" stroke-linecap="round" stroke-linejoin="round"></line>
        </g>
        <g id="icon/gear/blue" transform="translate(0.000000, 36.000000)" stroke-width="2">
            <path d="" id="Path-2" stroke="#000000"></path>
            <path d="M28.2925521,14.5634944 L28.1593644,14.5150331 L27.6391829,13.2475405 L27.6955927,13.1173054 C29.2714322,9.46910022 29.1627771,9.36027471 28.9013992,9.09578544 L26.7993964,7.00259476 C26.7134567,6.91556527 26.562551,6.85435092 26.4324678,6.85435092 C26.3141966,6.85435092 25.9559755,6.85435092 22.8514687,8.28964192 L22.7269885,8.34668257 L21.4461457,7.82017733 L21.3947333,7.69001954 C19.9348178,4 19.785275,4 19.4219809,4 L16.4534633,4 C16.091532,4 15.9266943,4 14.5729352,7.69643468 L14.5219771,7.83099805 L13.2477974,8.36121325 L13.1259674,8.30950567 C11.0246462,7.40520278 9.7977144,6.94663619 9.47788228,6.94663619 C9.34810192,6.94663619 9.19666625,7.00607285 9.11034792,7.09287047 L7.00637652,9.19208983 C6.73947117,9.4608301 6.62877169,9.57336557 8.28714365,13.1454393 L8.34809651,13.2779158 L7.82708211,14.5440171 L7.69957328,14.5943335 C4,16.0537392 4,16.1960317 4,16.576148 L4,19.5455077 C4,19.9266289 4,20.0849206 7.70691791,21.4409884 L7.83942411,21.4887542 L8.36051423,22.7511456 L8.30455875,22.880144 C6.72871923,26.5300496 6.82866677,26.6288273 7.09693505,26.9012002 L9.19575764,28.9972507 C9.28374176,29.0835845 9.43601032,29.1452626 9.5658664,29.1452626 C9.68338048,29.1452626 10.0407686,29.1452626 13.1473199,27.7106672 L13.2717243,27.6512306 L14.5534,28.1803637 L14.6032223,28.3112171 C16.0640465,32 16.2141192,32 16.5776405,32 L19.5470667,32 C19.9199014,32 20.0745172,32 21.4293363,28.301092 L21.4798401,28.1664514 L22.7560642,27.6397915 L22.8775156,27.6903397 C24.9770954,28.5971932 26.2034214,29.0548323 26.5212091,29.0548323 C26.6498537,29.0548323 26.8026523,28.9972507 26.8904093,28.9085208 L28.997788,26.8047412 C29.2628761,26.5346097 29.3733484,26.4241611 27.7120235,22.8554882 L27.6502377,22.7214659 L28.1703435,21.4608522 L28.2945207,21.4111542 C32,19.9440966 32,19.8011086 32,19.4205284 L32,16.4529464 C32,16.0719026 32,15.9145384 28.2925521,14.5634944 Z" id="Path" stroke="#34558B" stroke-linejoin="round"></path>
            <circle id="Oval" stroke="#34558B" cx="18" cy="18" r="4"></circle>
        </g>
        <g id="icon/gold/blue" transform="translate(0.000000, 72.000000)">
            <polygon id="Rectangle" stroke="#34558B" stroke-width="2" stroke-linejoin="round" points="2.83333333 25.8994949 10.1666667 25.8994949 12 30.8994949 1 30.8994949"></polygon>
            <polygon id="Rectangle" stroke="#34558B" stroke-width="2" stroke-linejoin="round" points="14 25.8994949 22 25.8994949 24 30.8994949 12 30.8994949"></polygon>
            <polygon id="Rectangle" stroke="#34558B" stroke-width="2" stroke-linejoin="round" points="25.8333333 25.8994949 33.1666667 25.8994949 35 30.8994949 24 30.8994949"></polygon>
            <polygon id="Rectangle" stroke="#34558B" stroke-width="2" stroke-linejoin="round" points="8.83333333 20.8994949 16.1666667 20.8994949 18 25.8994949 7 25.8994949"></polygon>
            <polygon id="Rectangle" stroke="#34558B" stroke-width="2" stroke-linejoin="round" points="20 20.8994949 28 20.8994949 30 25.8994949 18 25.8994949"></polygon>
            <polygon id="Rectangle" stroke="#34558B" stroke-width="2" stroke-linejoin="round" points="14 15.8994949 22 15.8994949 24 20.8994949 12 20.8994949"></polygon>
            <polygon id="Rectangle" stroke="#34558B" stroke-width="2" stroke-linejoin="round" points="1 30.8994949 35 30.8994949 35 34.8994949 1 34.8994949"></polygon>
            <polygon id="Rectangle" fill="#34558B" fill-rule="evenodd" points="18 1.75735931 19.5241699 4.53057861 21.6837662 6 19.5241699 7.50054932 18 10.2426407 16.4527588 7.50054932 14.3162338 6 16.4527588 4.53057861"></polygon>
            <polygon id="Rectangle" fill="#34558B" fill-rule="evenodd" transform="translate(8.000000, 12.000000) rotate(-315.000000) translate(-8.000000, -12.000000) " points="5 9 8.03871306 9.88321129 10.604816 9.39518395 10.1387995 11.9832977 11 15 7.96698384 14.1551133 5.39518395 14.604816 5.86689742 12.0550269"></polygon>
            <polygon id="Rectangle" fill="#34558B" fill-rule="evenodd" transform="translate(29.000000, 12.000000) rotate(-315.000000) translate(-29.000000, -12.000000) " points="26 9 29.0387131 9.88321129 31.604816 9.39518395 31.1387995 11.9832977 32 15 28.9669838 14.1551133 26.395184 14.604816 26.8668974 12.0550269"></polygon>
        </g>
        <g id="icon/house/blue" transform="translate(0.000000, 108.000000)">
            <path d="" id="Path-2" stroke="#000000" stroke-width="2"></path>
            <g id="Group-2" stroke-width="1" fill-rule="evenodd" transform="translate(3.000000, 4.000000)" stroke="#34558B">
                <g id="Group" transform="translate(5.000000, 8.000000)" stroke-width="2">
                    <path d="M20,0 L20,16.9411765 C20,17.5259486 19.6162441,18 19.1428571,18 L0.857142857,18 C0.383755929,18 0,17.5259486 0,16.9411765 L0,0" id="Rectangle"></path>
                </g>
                <polyline id="Rectangle" stroke-width="2" stroke-linecap="round" stroke-linejoin="round" points="0.150757595 11.5 15 0.150757595 29.8492424 11.5"></polyline>
            </g>
        </g>
        <g id="icon/petrol/blue" transform="translate(0.000000, 144.000000)" stroke="#34558B" stroke-width="2">
            <path d="M11,5 L13.1651053,5 C14.0221971,5 14.8383615,5.36659532 15.407673,6.00729072 L28.2425677,20.4515049 C28.7304933,21.0006098 29,21.7096479 29,22.4442142 L29,32 C29,33.6568542 27.6568542,35 26,35 L11,35 C9.34314575,35 8,33.6568542 8,32 L8,8 C8,6.34314575 9.34314575,5 11,5 Z" id="Rectangle" stroke-linejoin="round"></path>
            <path d="M18,28 C19.6568542,28 21,26.6099218 21,24.8951735 C21,23.1804252 18,18 18,18 C18,18 15,23.1804252 15,24.8951735 C15,26.6099218 16.3431458,28 18,28 Z" id="Oval" fill="#34558B" fill-rule="evenodd" stroke-linejoin="round"></path>
            <path d="M29,5 L29,19.7032008 C29,20.971688 27.9215339,22 26.5911786,22 L20.9705954,22 C20.7189318,22 18.0620666,22 13,22" id="Rectangle" transform="translate(21.000000, 13.500000) scale(-1, 1) rotate(-180.000000) translate(-21.000000, -13.500000) "></path>
            <path d="M25.5449219,9 C25.5449219,10.8801471 25.5449219,13.2944037 25.5449219,16.2427698 C25.5449219,17.8411794 25.6922457,17.7373987 24.1628418,17.7373987 L18,17.7373987" id="Rectangle" transform="translate(21.774383, 13.369385) scale(-1, 1) rotate(-180.000000) translate(-21.774383, -13.369385) "></path>
            <path d="M9,4.97851562 L14,4.97851562 L14,1 L9,1 L9,4.97851562 Z" id="Rectangle"></path>
        </g>
        <g id="icon/currency/white" transform="translate(36.000000, 0.000000)" stroke="#FFFFFF" stroke-width="2">
            <rect id="Rectangle" x="1" y="8" width="34" height="15" rx="1"></rect>
            <rect id="Rectangle" transform="translate(18.000000, 25.500000) scale(1, -1) translate(-18.000000, -25.500000) " x="1" y="23" width="34" height="5"></rect>
            <path d="M5.99999999,7.99971096 L0.999951829,7.99995183 L0.999710956,13 C0.999807303,13 0.999903651,13 1,13 C3.76142375,13 6,10.7614237 6,8 C6,7.99990365 6,7.9998073 5.99999999,7.99971096 Z" id="Combined-Shape"></path>
            <path d="M5.49999999,18.4996949 L1.50006026,18.499939 L1.50036159,23.5 C3.66490597,23.4997547 5.5,21.2974861 5.5,18.5 C5.5,18.4998983 5.5,18.4997966 5.49999999,18.4996949 Z" id="Combined-Shape" transform="translate(3.500000, 21.000000) rotate(-90.000000) translate(-3.500000, -21.000000) "></path>
            <path d="M35,17.9996949 L31.0000603,17.999939 L31.0003616,23 C33.164906,22.9997547 35,20.7974861 35,18 C35,17.9998983 35,17.9997966 35,17.9996949 Z" id="Combined-Shape" transform="translate(33.000000, 20.500000) rotate(-180.000000) translate(-33.000000, -20.500000) "></path>
            <path d="M35.5,8.50036159 L30.499939,8.50006026 L30.4996949,12.5 C30.4997966,12.5 30.4998983,12.5 30.5,12.5 C33.2974861,12.5 35.4997547,10.664906 35.5,8.50036159 Z" id="Combined-Shape" transform="translate(33.000000, 10.500000) rotate(-270.000000) translate(-33.000000, -10.500000) "></path>
            <circle id="Oval" cx="18.5" cy="15.5" r="4.5"></circle>
            <line x1="25" y1="5" x2="26" y2="3" id="Line" stroke-linecap="round" stroke-linejoin="round"></line>
            <line x1="12" y1="33" x2="13" y2="31" id="Line" stroke-linecap="round" stroke-linejoin="round"></line>
            <line x1="13" y1="5" x2="12" y2="3" id="Line" stroke-linecap="round" stroke-linejoin="round"></line>
            <line x1="26" y1="33" x2="25" y2="31" id="Line" stroke-linecap="round" stroke-linejoin="round"></line>
            <line x1="19" y1="4" x2="19" y2="1" id="Line" stroke-linecap="round" stroke-linejoin="round"></line>
            <line x1="19" y1="35" x2="19" y2="32" id="Line" stroke-linecap="round" stroke-linejoin="round"></line>
        </g>
        <g id="icon/gear/blue" transform="translate(36.000000, 36.000000)" stroke-width="2">
            <path d="" id="Path-2" stroke="#000000"></path>
            <path d="M28.2925521,14.5634944 L28.1593644,14.5150331 L27.6391829,13.2475405 L27.6955927,13.1173054 C29.2714322,9.46910022 29.1627771,9.36027471 28.9013992,9.09578544 L26.7993964,7.00259476 C26.7134567,6.91556527 26.562551,6.85435092 26.4324678,6.85435092 C26.3141966,6.85435092 25.9559755,6.85435092 22.8514687,8.28964192 L22.7269885,8.34668257 L21.4461457,7.82017733 L21.3947333,7.69001954 C19.9348178,4 19.785275,4 19.4219809,4 L16.4534633,4 C16.091532,4 15.9266943,4 14.5729352,7.69643468 L14.5219771,7.83099805 L13.2477974,8.36121325 L13.1259674,8.30950567 C11.0246462,7.40520278 9.7977144,6.94663619 9.47788228,6.94663619 C9.34810192,6.94663619 9.19666625,7.00607285 9.11034792,7.09287047 L7.00637652,9.19208983 C6.73947117,9.4608301 6.62877169,9.57336557 8.28714365,13.1454393 L8.34809651,13.2779158 L7.82708211,14.5440171 L7.69957328,14.5943335 C4,16.0537392 4,16.1960317 4,16.576148 L4,19.5455077 C4,19.9266289 4,20.0849206 7.70691791,21.4409884 L7.83942411,21.4887542 L8.36051423,22.7511456 L8.30455875,22.880144 C6.72871923,26.5300496 6.82866677,26.6288273 7.09693505,26.9012002 L9.19575764,28.9972507 C9.28374176,29.0835845 9.43601032,29.1452626 9.5658664,29.1452626 C9.68338048,29.1452626 10.0407686,29.1452626 13.1473199,27.7106672 L13.2717243,27.6512306 L14.5534,28.1803637 L14.6032223,28.3112171 C16.0640465,32 16.2141192,32 16.5776405,32 L19.5470667,32 C19.9199014,32 20.0745172,32 21.4293363,28.301092 L21.4798401,28.1664514 L22.7560642,27.6397915 L22.8775156,27.6903397 C24.9770954,28.5971932 26.2034214,29.0548323 26.5212091,29.0548323 C26.6498537,29.0548323 26.8026523,28.9972507 26.8904093,28.9085208 L28.997788,26.8047412 C29.2628761,26.5346097 29.3733484,26.4241611 27.7120235,22.8554882 L27.6502377,22.7214659 L28.1703435,21.4608522 L28.2945207,21.4111542 C32,19.9440966 32,19.8011086 32,19.4205284 L32,16.4529464 C32,16.0719026 32,15.9145384 28.2925521,14.5634944 Z" id="Path" stroke="#FFFFFF" stroke-linejoin="round"></path>
            <circle id="Oval" stroke="#FFFFFF" cx="18" cy="18" r="4"></circle>
        </g>
        <g id="icon/gold/white" transform="translate(36.000000, 72.000000)">
            <polygon id="Rectangle" stroke="#FFFFFF" stroke-width="2" stroke-linejoin="round" points="2.83333333 25.8994949 10.1666667 25.8994949 12 30.8994949 1 30.8994949"></polygon>
            <polygon id="Rectangle" stroke="#FFFFFF" stroke-width="2" stroke-linejoin="round" points="14 25.8994949 22 25.8994949 24 30.8994949 12 30.8994949"></polygon>
            <polygon id="Rectangle" stroke="#FFFFFF" stroke-width="2" stroke-linejoin="round" points="25.8333333 25.8994949 33.1666667 25.8994949 35 30.8994949 24 30.8994949"></polygon>
            <polygon id="Rectangle" stroke="#FFFFFF" stroke-width="2" stroke-linejoin="round" points="8.83333333 20.8994949 16.1666667 20.8994949 18 25.8994949 7 25.8994949"></polygon>
            <polygon id="Rectangle" stroke="#FFFFFF" stroke-width="2" stroke-linejoin="round" points="20 20.8994949 28 20.8994949 30 25.8994949 18 25.8994949"></polygon>
            <polygon id="Rectangle" stroke="#FFFFFF" stroke-width="2" stroke-linejoin="round" points="14 15.8994949 22 15.8994949 24 20.8994949 12 20.8994949"></polygon>
            <polygon id="Rectangle" stroke="#FFFFFF" stroke-width="2" stroke-linejoin="round" points="1 30.8994949 35 30.8994949 35 34.8994949 1 34.8994949"></polygon>
            <polygon id="Rectangle" fill="#FFFFFF" fill-rule="evenodd" points="18 1.75735931 19.5241699 4.53057861 21.6837662 6 19.5241699 7.50054932 18 10.2426407 16.4527588 7.50054932 14.3162338 6 16.4527588 4.53057861"></polygon>
            <g id="Group-2" stroke-width="1" fill-rule="evenodd" transform="translate(3.000000, 7.000000)" fill="#FFFFFF">
                <polygon id="Rectangle" transform="translate(5.000000, 5.000000) rotate(-315.000000) translate(-5.000000, -5.000000) " points="2 2 5.03871306 2.88321129 7.60481605 2.39518395 7.13879948 4.98329771 8 8 4.96698384 7.15511335 2.39518395 7.60481605 2.86689742 5.05502693"></polygon>
                <polygon id="Rectangle" transform="translate(26.000000, 5.000000) rotate(-315.000000) translate(-26.000000, -5.000000) " points="23 2 26.0387131 2.88321129 28.604816 2.39518395 28.1387995 4.98329771 29 8 25.9669838 7.15511335 23.395184 7.60481605 23.8668974 5.05502693"></polygon>
            </g>
        </g>
        <g id="icon/house/blue" transform="translate(36.000000, 108.000000)">
            <path d="" id="Path-2" stroke="#000000" stroke-width="2"></path>
            <g id="Group-2" stroke-width="1" fill-rule="evenodd" transform="translate(3.000000, 0.000000)" stroke="#FFFFFF">
                <g id="Group" transform="translate(5.000000, 12.000000)" stroke-width="2">
                    <path d="M20,0 L20,16.9411765 C20,17.5259486 19.6162441,18 19.1428571,18 L0.857142857,18 C0.383755929,18 0,17.5259486 0,16.9411765 L0,0" id="Rectangle"></path>
                </g>
                <polyline id="Rectangle" stroke-width="2" stroke-linecap="round" stroke-linejoin="round" transform="translate(15.000000, 15.500000) rotate(-45.000000) translate(-15.000000, -15.500000) " points="4.5 5 23.0251263 7.47487373 25.5 26"></polyline>
            </g>
        </g>
        <g id="icon/petrol/white" transform="translate(36.000000, 144.000000)" stroke="#FFFFFF" stroke-width="2">
            <path d="M11,5 L13.1651053,5 C14.0221971,5 14.8383615,5.36659532 15.407673,6.00729072 L28.2425677,20.4515049 C28.7304933,21.0006098 29,21.7096479 29,22.4442142 L29,32 C29,33.6568542 27.6568542,35 26,35 L11,35 C9.34314575,35 8,33.6568542 8,32 L8,8 C8,6.34314575 9.34314575,5 11,5 Z" id="Rectangle" stroke-linejoin="round"></path>
            <path d="M18,28 C19.6568542,28 21,26.6099218 21,24.8951735 C21,23.1804252 18,18 18,18 C18,18 15,23.1804252 15,24.8951735 C15,26.6099218 16.3431458,28 18,28 Z" id="Oval" fill="#FFFFFF" fill-rule="evenodd" stroke-linejoin="round"></path>
            <path d="M29,5 L29,19.7032008 C29,20.971688 27.9215339,22 26.5911786,22 L20.9705954,22 C20.7189318,22 18.0620666,22 13,22" id="Rectangle" transform="translate(21.000000, 13.500000) scale(-1, 1) rotate(-180.000000) translate(-21.000000, -13.500000) "></path>
            <path d="M25.5449219,9 C25.5449219,10.8801471 25.5449219,13.2944037 25.5449219,16.2427698 C25.5449219,17.8411794 25.6922457,17.7373987 24.1628418,17.7373987 L18,17.7373987" id="Rectangle" transform="translate(21.774383, 13.369385) scale(-1, 1) rotate(-180.000000) translate(-21.774383, -13.369385) "></path>
            <path d="M9,4.97851562 L14,4.97851562 L14,1 L9,1 L9,4.97851562 Z" id="Rectangle"></path>
        </g>
        <g id="icon/utility/copy/grey" transform="translate(72.000000, 0.000000)" stroke="#C4C6C9">
            <g id="Group" transform="translate(3.000000, 2.000000)">
                <rect id="Rectangle" stroke-width="2" x="0" y="3" width="9" height="13" rx="1"></rect>
                <path d="M5,2.00982666 C5,0.66994222 5.3,0 5.9,0 L13.1,0 C13.5970563,0 14,0.417867567 14,0.933333333 L14,13.0666667 C14,13.5821324 13.5970563,14 13.1,14 C11.9338704,14 10.8932129,14 9.97802734,14" id="Rectangle" stroke-width="2"></path>
            </g>
        </g>
        <g id="icon/utility/gear/grey" transform="translate(72.000000, 20.000000)" fill="#C4C6C9">
            <g id="gear-option">
                <path d="M17.3518229,7.54535316 L17.2566889,7.51073791 L16.8851306,6.60538607 L16.9254233,6.51236101 C18.051023,3.90650016 17.9734122,3.82876765 17.7867137,3.63984674 L16.2852832,2.14471055 C16.2238976,2.08254662 16.1161079,2.03882209 16.0231913,2.03882209 C15.9387118,2.03882209 15.6828396,2.03882209 13.4653348,3.06402994 L13.3764204,3.10477326 L12.4615326,2.72869809 L12.4248095,2.63572825 C11.3820127,0 11.2751965,0 11.0157006,0 L8.89533091,0 C8.6368086,0 8.51906737,0 7.55209657,2.64031049 L7.51569793,2.73642718 L6.60556959,3.11515232 L6.51854816,3.07821834 C5.0176044,2.4322877 4.14122457,2.10474014 3.91277306,2.10474014 C3.8200728,2.10474014 3.71190447,2.14719489 3.65024852,2.20919319 L2.1474118,3.7086356 C1.95676512,3.90059293 1.87769407,3.98097541 3.06224547,6.53245663 L3.10578322,6.62708271 L2.73363008,7.53144081 L2.64255234,7.56738105 C0,8.60981373 0,8.71145119 0,8.98296289 L0,11.1039341 C0,11.3761635 0,11.489229 2.6477985,12.4578489 L2.74244579,12.4919673 L3.11465302,13.3936754 L3.07468482,13.4858171 C1.94908517,16.0928926 2.02047627,16.1634481 2.21209646,16.3580002 L3.71125546,17.855179 C3.77410126,17.9168461 3.88286451,17.9609019 3.97561886,17.9609019 C4.05955748,17.9609019 4.31483475,17.9609019 6.5337999,16.9361909 L6.62266018,16.8937361 L7.53814286,17.2716884 L7.57373024,17.3651551 C8.61717605,20 8.72437087,20 8.98402895,20 L11.1050477,20 C11.3713581,20 11.481798,20 12.449526,17.3579229 L12.4856001,17.261751 L13.3971887,16.8855654 L13.4839397,16.9216712 C14.9836395,17.5694237 15.8595867,17.8963088 16.0865779,17.8963088 C16.1784669,17.8963088 16.2876088,17.855179 16.3502923,17.7918005 L17.8555628,16.2891009 C18.0449115,16.0961498 18.1238203,16.0172579 16.9371596,13.4682059 L16.8930269,13.3724756 L17.2645311,12.4720373 L17.3532291,12.4365387 C20,11.3886405 20,11.2865061 20,11.0146632 L20,8.89496174 C20,8.62278755 20,8.51038458 17.3518229,7.54535316 Z M9.99994592,13.4398291 C8.10494492,13.4398291 6.56332985,11.8962757 6.56332985,10.0003865 C6.56332985,8.10444202 8.104999,6.56293131 9.99994592,6.56293131 C11.8941357,6.56293131 13.4354803,8.10477326 13.4354803,10.0003865 C13.4354803,11.8959444 11.8941897,13.4398291 9.99994592,13.4398291 Z" id="Shape" fill-rule="nonzero"></path>
            </g>
        </g>
        <g id="icon/utility/refresh/grey" transform="translate(72.000000, 40.000000)" stroke="#C4C6C9" stroke-linecap="round" stroke-linejoin="round">
            <g id="Group" transform="translate(2.000000, 2.000000)">
                <path d="M8,16 C12.418278,16 16,12.418278 16,8 C16,3.581722 12.418278,0 8,0 C3.581722,0 0,3.581722 0,8 C0,8.73990524 0.10044724,9.45634977 0.288449199,10.1364411 C0.526310292,10.9968963 0.904324137,11.7991592 1.39637989,12.5171191 C1.66479092,12.9087583 1.96713607,13.2753125 2.29917716,13.6125434 C2.67341458,13.9926302 3.08537514,14.3354672 3.52899085,14.6349865 C3.83839124,14.8438867 4.1631899,15.0317155 4.50132818,15.1964142" id="Oval" stroke-width="2"></path>
                <polyline id="Rectangle" stroke-width="2" transform="translate(3.000000, 14.010986) rotate(-270.000000) translate(-3.000000, -14.010986) " points="1 12.0109863 5 12.0109863 5 16.0109863"></polyline>
            </g>
        </g>
        <g id="icon/utility/send/grey" transform="translate(72.000000, 60.000000)" stroke="#C4C6C9" stroke-width="2">
            <polygon id="Rectangle" stroke-linejoin="round" transform="translate(13.115231, 9.266687) rotate(-315.000000) translate(-13.115231, -9.266687) " points="12.0403571 0.0649136263 21.0147091 10.9050885 5.21575258 18.4684596"></polygon>
            <line x1="18" y1="3" x2="9" y2="12" id="Line-4" stroke-linecap="square"></line>
            <polyline id="Path-4" stroke-linecap="round" stroke-linejoin="round" points="8 13.4398291 8 19 12.605957 14.7324219"></polyline>
        </g>
        <g id="icon/utility/copy/white" transform="translate(92.000000, 0.000000)" stroke="#FFFFFF" stroke-width="2">
            <rect id="Rectangle" x="2" y="6" width="10" height="13" rx="1"></rect>
            <path d="M7,5 C7,5.41004774 7,5.03226997 7,3.86666667 C7,2.70106337 7.33333333,2.07884115 8,2 L16,2 C16.5522847,2 17,2.41786757 17,2.93333333 L17,15.0666667 C17,15.5821324 16.5522847,16 16,16 C13.9662543,16 12.4409451,16 11.4240723,16" id="Rectangle"></path>
        </g>
        <g id="icon/utility/gear/grey" transform="translate(92.000000, 20.000000)" fill="#FFFFFF">
            <g id="gear-option">
                <path d="M17.3518229,7.54535316 L17.2566889,7.51073791 L16.8851306,6.60538607 L16.9254233,6.51236101 C18.051023,3.90650016 17.9734122,3.82876765 17.7867137,3.63984674 L16.2852832,2.14471055 C16.2238976,2.08254662 16.1161079,2.03882209 16.0231913,2.03882209 C15.9387118,2.03882209 15.6828396,2.03882209 13.4653348,3.06402994 L13.3764204,3.10477326 L12.4615326,2.72869809 L12.4248095,2.63572825 C11.3820127,0 11.2751965,0 11.0157006,0 L8.89533091,0 C8.6368086,0 8.51906737,0 7.55209657,2.64031049 L7.51569793,2.73642718 L6.60556959,3.11515232 L6.51854816,3.07821834 C5.0176044,2.4322877 4.14122457,2.10474014 3.91277306,2.10474014 C3.8200728,2.10474014 3.71190447,2.14719489 3.65024852,2.20919319 L2.1474118,3.7086356 C1.95676512,3.90059293 1.87769407,3.98097541 3.06224547,6.53245663 L3.10578322,6.62708271 L2.73363008,7.53144081 L2.64255234,7.56738105 C0,8.60981373 0,8.71145119 0,8.98296289 L0,11.1039341 C0,11.3761635 0,11.489229 2.6477985,12.4578489 L2.74244579,12.4919673 L3.11465302,13.3936754 L3.07468482,13.4858171 C1.94908517,16.0928926 2.02047627,16.1634481 2.21209646,16.3580002 L3.71125546,17.855179 C3.77410126,17.9168461 3.88286451,17.9609019 3.97561886,17.9609019 C4.05955748,17.9609019 4.31483475,17.9609019 6.5337999,16.9361909 L6.62266018,16.8937361 L7.53814286,17.2716884 L7.57373024,17.3651551 C8.61717605,20 8.72437087,20 8.98402895,20 L11.1050477,20 C11.3713581,20 11.481798,20 12.449526,17.3579229 L12.4856001,17.261751 L13.3971887,16.8855654 L13.4839397,16.9216712 C14.9836395,17.5694237 15.8595867,17.8963088 16.0865779,17.8963088 C16.1784669,17.8963088 16.2876088,17.855179 16.3502923,17.7918005 L17.8555628,16.2891009 C18.0449115,16.0961498 18.1238203,16.0172579 16.9371596,13.4682059 L16.8930269,13.3724756 L17.2645311,12.4720373 L17.3532291,12.4365387 C20,11.3886405 20,11.2865061 20,11.0146632 L20,8.89496174 C20,8.62278755 20,8.51038458 17.3518229,7.54535316 Z M9.99994592,13.4398291 C8.10494492,13.4398291 6.56332985,11.8962757 6.56332985,10.0003865 C6.56332985,8.10444202 8.104999,6.56293131 9.99994592,6.56293131 C11.8941357,6.56293131 13.4354803,8.10477326 13.4354803,10.0003865 C13.4354803,11.8959444 11.8941897,13.4398291 9.99994592,13.4398291 Z" id="Shape" fill-rule="nonzero"></path>
            </g>
        </g>
        <g id="icon/utility/refresh/grey" transform="translate(92.000000, 40.000000)" stroke="#FFFFFF" stroke-linecap="round" stroke-linejoin="round">
            <g id="Group" transform="translate(2.000000, 2.000000)">
                <path d="M8,16 C12.418278,16 16,12.418278 16,8 C16,3.581722 12.418278,0 8,0 C3.581722,0 0,3.581722 0,8 C0,8.73990524 0.10044724,9.45634977 0.288449199,10.1364411 C0.526310292,10.9968963 0.904324137,11.7991592 1.39637989,12.5171191 C1.66479092,12.9087583 1.96713607,13.2753125 2.29917716,13.6125434 C2.67341458,13.9926302 3.08537514,14.3354672 3.52899085,14.6349865 C3.83839124,14.8438867 4.1631899,15.0317155 4.50132818,15.1964142" id="Oval" stroke-width="2"></path>
                <polyline id="Rectangle" stroke-width="2" transform="translate(3.000000, 14.010986) rotate(-270.000000) translate(-3.000000, -14.010986) " points="1 12.0109863 5 12.0109863 5 16.0109863"></polyline>
            </g>
        </g>
        <g id="icon/utility/send/white" transform="translate(92.000000, 60.000000)" stroke="#FFFFFF" stroke-width="2">
            <polygon id="Rectangle" stroke-linejoin="round" transform="translate(13.115231, 9.266687) rotate(-315.000000) translate(-13.115231, -9.266687) " points="12.0403571 0.0649136263 21.0147091 10.9050885 5.21575258 18.4684596"></polygon>
            <line x1="18" y1="3" x2="9" y2="12" id="Line-4" stroke-linecap="square"></line>
            <polyline id="Path-4" stroke-linecap="round" stroke-linejoin="round" points="8 13.4398291 8 19 12.605957 14.7324219"></polyline>
        </g>
        <g id="icon/hero/blue" transform="translate(112.000000, 0.000000)">
            <path d="" id="Path-2" stroke="#000000" stroke-width="2"></path>
            <g id="Group" stroke-width="1" fill-rule="evenodd" transform="translate(20.491792, 34.311919) rotate(-330.000000) translate(-20.491792, -34.311919) translate(-1.508208, 6.311919)">
                <path d="M22.4540346,34.5309025 C34.3281567,34.5309025 43.9540346,13.8419487 43.9540346,0.530902528 C43.9540346,0.530902528 0.954034556,0.530902528 0.954034556,0.530902528 C0.954034556,13.8419487 10.5799124,34.5309025 22.4540346,34.5309025 Z" id="Oval" fill="#34558B"></path>
                <path d="M43.9540346,0.530902528 C43.9540346,1.83472872 43.7972836,3.1786302 43.4991127,4.53114699 L34.9540346,4.53090253 L34.9540346,7.03090253 C34.9540346,7.85932965 34.2824617,8.53090253 33.4540346,8.53090253 C32.6256074,8.53090253 31.9540346,7.85932965 31.9540346,7.03090253 L31.9540346,4.53090253 L28.9540346,4.53090253 L28.9540346,11.0309025 C28.9540346,11.8593297 28.2824617,12.5309025 27.4540346,12.5309025 C26.6256074,12.5309025 25.9540346,11.8593297 25.9540346,11.0309025 L25.9540346,4.53090253 L22.9540346,4.53090253 L22.9540346,7.03090253 C22.9540346,7.85932965 22.2824617,8.53090253 21.4540346,8.53090253 C20.6256074,8.53090253 19.9540346,7.85932965 19.9540346,7.03090253 L19.9540346,4.53090253 L1.40895637,4.53114699 C1.11078551,3.1786302 0.954034556,1.83472872 0.954034556,0.530902528 L0.954034556,0.530902528 Z" id="Combined-Shape" fill="#7195D0"></path>
                <path d="M22.1950852,29.9840965 C23.7417593,29.9840965 25.0349329,31.1599622 25.1815716,32.6996692 L26.9229456,50.9840965 C26.9229456,53.7455203 24.4605118,55.9840965 21.4229456,55.9840965 C18.4613187,55.9840965 16.0464268,53.85605 15.9275332,51.1901961 L15.9229456,50.9840965 L17.5911138,33.4683307 C17.7792597,31.492799 19.4384749,29.9840965 21.4229456,29.9840965 L22.1950852,29.9840965 Z M21.5468532,47.8521676 C19.8899989,47.8521676 18.5468532,49.1953134 18.5468532,50.8521676 C18.5468532,52.5090219 19.8899989,53.8521676 21.5468532,53.8521676 C23.2037074,53.8521676 24.5468532,52.5090219 24.5468532,50.8521676 C24.5468532,49.1953134 23.2037074,47.8521676 21.5468532,47.8521676 Z" id="Combined-Shape" fill="#7195D0"></path>
            </g>
            <path d="M53,38.3647461 C54.6568542,38.3647461 56,37.0216003 56,35.3647461 C56,33.7078918 53,29 53,29 C53,29 50,33.7078918 50,35.3647461 C50,37.0216003 51.3431458,38.3647461 53,38.3647461 Z" id="Oval" fill="#34558B" fill-rule="evenodd"></path>
            <path d="M44,47.3647461 C45.6568542,47.3647461 47,46.0216003 47,44.3647461 C47,42.7078918 44,38 44,38 C44,38 41,42.7078918 41,44.3647461 C41,46.0216003 42.3431458,47.3647461 44,47.3647461 Z" id="Oval" fill="#7195D0" fill-rule="evenodd"></path>
        </g>
    </g>
</svg>